<svg width="593" height="236" viewBox="0 0 593 236" fill="none" xmlns="http://www.w3.org/2000/svg">
<path d="M592.354 0.12085V38.404H517.493V62.4625H578.02V99.2941H517.493V126.401H592.354V165.99H467.562V0.12085H592.354Z" fill="#00B4D5"/>
<path d="M287.651 165.99H236.74V0.12085H287.651V165.99Z" fill="#00B4D5"/>
<path d="M133.719 0.12085L158.322 95.7742L181.582 0.12085H220.554L176.538 165.99H133.755L110.567 74.5099L88.6499 165.99H44.0528L0 0.12085H47.8993L71.1231 95.5928L93.7301 0.12085H133.719Z" fill="#00B4D5"/>
<path d="M376.895 57.5167C396.268 61.5755 409.978 65.1394 418.125 68.3072C426.271 71.4751 433.027 76.8209 438.591 84.4436C444.055 92.0663 446.737 101.075 446.737 111.371C446.737 127.606 440.18 140.871 426.867 150.969C413.555 161.067 396.168 166.115 374.61 166.115C335.168 166.115 310.827 149.781 301.588 117.013L347.686 108.797C351.561 121.765 361.595 128.299 377.59 128.299C390.009 128.299 396.268 125.032 396.268 118.399C396.268 114.934 394.778 112.162 391.896 110.282C389.015 108.302 383.849 106.619 376.398 105.134C347.984 99.689 329.803 92.5613 321.756 83.8496C313.709 75.138 309.635 64.8424 309.635 53.0619C309.635 37.8165 315.497 25.244 327.021 15.1464C338.645 5.04878 355.236 0 376.994 0C409.879 0 431.636 13.2655 442.266 39.5984L401.136 51.9729C396.864 41.1823 388.22 35.8365 375.206 35.8365C364.377 35.8365 359.012 39.1034 359.012 45.8351C359.012 48.805 360.204 51.0819 362.688 52.7649C365.072 54.4478 369.841 56.0317 376.895 57.5167Z" fill="#00B4D5"/>
<path d="M44.0513 234.963H61.6869V212.864H80.9555V199.583H61.6869V189.967H86.7614V175.887H44.0513V234.963ZM143.079 202.305C144.458 199.692 145.148 196.68 145.148 193.269C145.148 188.044 143.261 183.834 139.487 180.641C135.713 177.448 130.451 175.851 123.629 175.851H92.7851V234.927H110.929V212.32H116.662L125.299 234.927H145.402L134.697 209.163C138.906 207.203 141.7 204.917 143.079 202.305ZM124.174 198.313C122.795 199.256 120.944 199.728 118.694 199.728H110.965V188.443H119.311C123.956 188.443 126.278 190.33 126.278 194.104C126.242 195.954 125.553 197.333 124.174 198.313ZM152.151 234.963H196.603V220.847H169.932V211.195H191.487V198.095H169.932V189.531H196.603V175.887H152.151V234.963ZM240.946 200.018C237.971 198.857 232.963 197.551 225.887 196.063C223.311 195.519 221.569 194.938 220.698 194.321C219.791 193.704 219.355 192.87 219.355 191.781C219.355 189.314 221.315 188.116 225.27 188.116C230.024 188.116 233.181 190.076 234.741 194.031L249.764 189.495C245.881 179.843 237.934 174.98 225.923 174.98C217.976 174.98 211.916 176.831 207.671 180.532C203.461 184.233 201.321 188.842 201.321 194.43C201.321 198.748 202.808 202.522 205.748 205.716C208.687 208.909 215.327 211.522 225.706 213.517C228.427 214.062 230.314 214.679 231.366 215.404C232.419 216.094 232.963 217.11 232.963 218.38C232.963 220.811 230.677 222.009 226.141 222.009C220.299 222.009 216.634 219.614 215.219 214.86L198.381 217.872C201.756 229.883 210.646 235.87 225.052 235.87C232.927 235.87 239.277 234.02 244.14 230.318C249.002 226.617 251.397 221.755 251.397 215.803C251.397 212.03 250.417 208.727 248.421 205.933C246.389 203.139 243.922 201.18 240.946 200.018ZM288.737 197.624H274.875V175.887H256.731V234.963H274.875V211.993H288.737V234.963H306.88V175.887H288.737V197.624ZM378.04 175.887L369.766 209.961L360.985 175.887H346.76L338.704 209.889L330.431 175.887H313.376L329.088 234.963H344.982L352.784 202.377L361.057 234.963H376.298L391.902 175.887H378.04ZM408.086 175.887L389.833 234.963H404.566L408.122 223.315H423.943L427.282 234.963H445.788L427.245 175.887H408.086ZM411.206 210.433L415.996 193.305L420.786 210.433H411.206ZM442.014 190.039H454.279V234.963H471.48V190.039H483.745V175.887H442.051V190.039H442.014ZM487.373 234.963H531.825V220.847H505.154V211.195H526.709V198.095H505.154V189.531H531.825V175.887H487.373V234.963ZM581.539 209.199C585.748 207.203 588.543 204.917 589.922 202.305C591.3 199.692 591.99 196.68 591.99 193.269C591.99 188.044 590.103 183.834 586.329 180.641C582.555 177.448 577.294 175.851 570.471 175.851H539.627V234.927H557.771V212.32H563.504L572.141 234.927H592.244L581.539 209.199ZM571.016 198.313C569.637 199.256 567.786 199.728 565.536 199.728H557.807V188.443H566.153C570.798 188.443 573.12 190.33 573.12 194.104C573.12 195.954 572.431 197.333 571.016 198.313Z" fill="#00B4D5"/>
<path fill-rule="evenodd" clip-rule="evenodd" d="M245.039 102.209V93.2884C248.507 93.8593 255.478 94.7503 261.973 94.7503C268.515 94.7503 275.982 93.6231 279.713 92.9105V102.23C276.956 101.664 270.654 100.798 261.973 100.798C253.395 100.798 247.563 101.643 245.039 102.209ZM261.973 93.1375C266.864 93.1375 272.312 92.4903 276.248 91.8725C275.863 91.8213 275.45 91.7707 275.007 91.7214C272.025 91.3893 267.755 91.1216 261.973 91.1216C256.19 91.1216 252.056 91.3894 249.246 91.7208C248.49 91.8099 247.832 91.9034 247.265 91.9971C250.976 92.5254 256.647 93.1375 261.973 93.1375ZM261.973 89.5088C256.143 89.5088 251.945 89.7786 249.057 90.1191C247.613 90.2894 246.491 90.478 245.652 90.6614C244.833 90.8407 244.234 91.0255 243.872 91.2067L243.426 91.4296V91.9279V92.3311V121.764V121.774L243.426 121.784C243.561 127.304 243.904 136.106 244.496 144.581C245.087 153.026 245.929 161.237 247.082 165.519L247.243 166.115H247.861H276.488H277.099L277.264 165.526C278.233 162.066 280.358 148.568 281.325 121.793L281.326 121.779V121.764V91.9279V91.382L280.819 91.1792C280.038 90.8668 278.21 90.4553 275.186 90.1185C272.133 89.7786 267.802 89.5088 261.973 89.5088ZM245.038 103.218C246.864 104.234 253.11 106.411 262.791 106.411C272.479 106.411 278.174 104.231 279.713 103.243V104.296C277.205 105.528 271.494 107.25 262.791 107.25C253.889 107.25 247.712 105.449 245.038 104.233V103.218ZM246.916 131.635C247.462 141.451 248.299 156.51 249.876 159.664C250.683 161.277 257.537 162.083 260.762 160.874C262.158 160.351 261.257 159.629 259.601 158.302C257.643 156.735 254.63 154.321 253.102 150.391C251.709 146.81 250.003 139.155 248.689 133.263C247.34 127.212 246.405 123.019 246.651 127.006C246.732 128.32 246.819 129.895 246.916 131.635Z" fill="#99E1EF"/>
<path fill-rule="evenodd" clip-rule="evenodd" d="M122.161 120.25L133.754 165.99H171.539C172.688 161.328 174.582 153.213 167.727 141.117C165.945 137.971 163.757 135.119 161.668 132.396L161.667 132.395C156.965 126.267 152.766 120.794 154.825 114.103C158.051 103.62 164.715 96.3625 166.518 96.3625C166.829 96.3625 166.896 96.5982 167.024 97.0516C167.228 97.7734 167.589 99.0465 169.34 100.798C172.162 103.62 184.29 112.174 185.871 112.49C187.718 112.86 186.632 110.747 186.023 109.564C185.968 109.455 185.916 109.355 185.871 109.265C184.778 107.442 183.174 105.142 181.714 103.049C179.944 100.512 178.387 98.2791 178.21 97.5721C177.952 96.5371 178.523 95.3362 179.072 94.1823L179.073 94.1813L179.073 94.18C179.38 93.5365 179.679 92.9077 179.823 92.3306C179.844 92.2479 179.868 92.1556 179.894 92.0547C180.377 90.1869 181.632 85.3317 177.807 82.6539C174.172 80.1095 167.588 80.5143 162.486 83.8686L160.936 85.0203L158.321 95.7738L156.606 89.105C150.288 96.2012 145.132 103.224 143.939 114.103C142.984 122.813 145.61 132.582 150.043 140.13C152.565 144.422 156.874 151.759 153.212 154.422C148.777 157.648 144.745 149.181 142.729 144.342L142.726 144.334C140.705 139.485 134.243 123.975 122.161 120.25ZM175.688 93.7065C175.688 94.3745 175.146 94.9161 174.478 94.9161C173.81 94.9161 173.268 94.3745 173.268 93.7065C173.268 93.0384 173.81 92.4969 174.478 92.4969C175.146 92.4969 175.688 93.0384 175.688 93.7065ZM79.0263 165.99H88.6504L100.019 118.538C99.4727 118.403 97.5733 118.377 95.9605 119.344C93.9445 120.554 94.7509 121.763 97.17 122.973C97.9764 123.376 97.9764 125.392 95.1541 124.183C94.2762 123.806 93.5933 123.43 93.0206 123.115C91.752 122.416 91.0237 122.014 89.9126 122.57C88.8375 123.107 90.2711 124.362 91.7046 125.616C92.4214 126.243 93.1382 126.871 93.5414 127.408C95.0904 129.473 93.5413 131.037 91.5253 129.424C89.5094 127.811 88.0331 126.971 86.2838 127.408C84.671 127.811 84.2679 129.827 86.687 131.843C90.1914 134.763 91.1221 138.294 87.0902 138.698C76.6592 139.741 75.3977 144.342 75.8008 149.987C76.1649 155.085 83.1065 157.552 86.8239 158.873C87.2226 159.015 87.5841 159.143 87.8965 159.26C90.3157 160.47 88.2997 161.679 84.2678 161.679C80.2359 161.679 79.0263 160.47 78.2199 159.663C78.0516 159.495 77.8833 159.292 77.7223 159.097C77.112 158.36 76.6071 157.749 76.6071 159.663C76.6071 161.599 78.2199 164.687 79.0263 165.99Z" fill="#99E1EF"/>
<path fill-rule="evenodd" clip-rule="evenodd" d="M66.528 212.865C58.475 210.448 51.8284 208.156 47.0614 206.309L46.4785 207.812C50.3836 209.326 55.5386 211.135 61.6876 213.066V212.865H66.528ZM92.7858 219.793V221.448C98.5635 222.771 104.639 224.037 110.929 225.19V223.551C104.636 222.392 98.56 221.121 92.7858 219.793ZM121.65 225.375L122.313 227.109C129.135 228.157 136.141 229.045 143.235 229.71L142.534 228.024C135.449 227.341 128.456 226.437 121.65 225.375ZM152.152 228.805V230.421C158.191 230.816 164.264 231.033 170.316 231.033C180.002 231.033 188.693 230.925 196.604 230.7V229.086C188.7 229.312 180.01 229.42 170.316 229.42C164.265 229.42 158.191 229.202 152.152 228.805ZM204.473 228.813C205.016 229.358 205.589 229.871 206.191 230.353C223.01 229.605 236.165 228.215 248.294 226.077C248.713 225.484 249.089 224.87 249.423 224.237C236.597 226.574 222.699 228.057 204.473 228.813ZM256.732 222.791V224.44C262.77 223.162 268.7 221.681 274.876 219.985V218.312C268.687 220.019 262.76 221.507 256.732 222.791ZM288.737 214.294V215.979C293.722 214.483 298.983 212.864 304.664 211.115C305.396 210.89 306.135 210.662 306.881 210.433V208.745C305.972 209.025 305.074 209.301 304.186 209.575L304.183 209.576C298.677 211.27 293.573 212.841 288.737 214.294ZM320.946 204.347L321.361 205.909C323.682 205.14 326.138 204.305 328.736 203.423L328.736 203.423C331.195 202.588 333.779 201.71 336.494 200.804L336.111 199.23C333.337 200.155 330.7 201.051 328.197 201.902C325.643 202.769 323.227 203.59 320.946 204.347ZM341.663 197.404L341.227 199.243C348.361 196.92 356.321 194.477 365.175 192.145L364.773 190.583C356.261 192.824 348.577 195.166 341.663 197.404ZM375.094 188.023L374.668 189.778C379.243 188.703 384.033 187.672 389.044 186.711L389.5 184.983C384.48 185.934 379.681 186.956 375.094 188.023ZM406.123 182.242L405.597 183.944C412.967 182.891 420.752 182.015 428.969 181.379L428.474 179.8C420.637 180.415 413.191 181.248 406.123 182.242ZM442.051 178.979V180.593C447.563 180.357 453.253 180.23 459.126 180.23C467.335 180.23 475.581 180.589 483.745 181.226V179.608C475.582 178.974 467.336 178.618 459.126 178.618C453.254 178.618 447.564 178.744 442.051 178.979ZM487.374 179.909V181.528C502.825 182.891 517.915 185.219 531.826 187.967V186.323C517.907 183.583 502.82 181.266 487.374 179.909ZM539.628 187.928V189.577C546.02 190.952 552.109 192.399 557.808 193.86V192.195C552.104 190.738 546.015 189.297 539.628 187.928ZM572.721 196.272C572.5 196.797 572.186 197.264 571.779 197.677C578.599 199.662 584.531 201.576 589.342 203.266C589.557 202.95 589.751 202.63 589.922 202.305C590.003 202.152 590.081 201.998 590.157 201.843C585.386 200.161 579.498 198.253 572.721 196.272Z" fill="#99E1EF"/>
<path fill-rule="evenodd" clip-rule="evenodd" d="M549.207 35.4281C549.738 36.0822 550.042 37.0439 550.174 38.4039H523.725C523.857 37.0439 524.16 36.0822 524.692 35.4281C525.472 34.4674 526.654 34.2712 528.079 34.2712H530.073C530.024 32.4011 530.666 30.7254 531.496 29.3823C532.327 28.0371 533.36 27.0027 534.127 26.4091V24.5797C530.406 23.447 527.636 20.1332 527.306 16.1275H521.225C520.15 17.7403 516.951 20.9658 512.758 20.9658C507.516 20.9658 504.694 18.1435 504.694 13.7084C504.694 9.27326 508.726 7.2573 512.758 7.2573C515.983 7.2573 519.746 9.94525 521.225 11.2892L528.15 11.2892C529.679 7.958 533.044 5.64453 536.949 5.64453C541.744 5.64453 545.724 9.1318 546.492 13.7084H552.674C553.749 12.0956 556.948 8.87007 561.141 8.87007C566.382 8.87007 569.205 11.6924 569.205 16.1275C569.205 20.5627 565.173 22.5786 561.141 22.5786C557.915 22.5786 554.152 19.8907 552.674 18.5467H546.075C545.057 21.4293 542.711 23.685 539.772 24.5797V26.4091C540.539 27.0027 541.572 28.0371 542.403 29.3823C543.233 30.7254 543.875 32.4011 543.826 34.2712H545.82C547.244 34.2712 548.426 34.4674 549.207 35.4281ZM517.493 50.8021H499.049C487.115 50.8021 483.056 56.7156 482.518 59.6723V94.3469C480.502 94.3469 478.89 94.9113 478.89 97.1692C478.89 99.4271 480.502 99.9916 482.922 99.9916H505.5C507.516 99.9916 508.726 99.1046 508.726 97.1692C508.726 95.2339 507.516 94.3469 505.5 94.3469V76.6064H578.02V62.4624H517.493V50.8021ZM486.147 132.567C486.147 126.394 494.141 110.215 494.951 108.591C494.981 108.531 495.054 108.531 495.083 108.591C495.894 110.215 503.888 126.394 503.888 132.567C503.888 139.071 499.916 144.343 495.017 144.343C490.118 144.343 486.147 139.071 486.147 132.567ZM592.354 37.5272V38.4039H583.237C584.34 36.1781 585.969 33.868 587.752 33.868C589.358 33.868 591.048 35.6391 592.354 37.5272ZM498.548 139.656C499.162 139.918 500.015 139.302 500.453 138.278C500.891 137.254 500.748 136.211 500.134 135.949C499.52 135.686 498.667 136.303 498.229 137.326C497.791 138.35 497.934 139.393 498.548 139.656Z" fill="#99E1EF"/>
<path fill-rule="evenodd" clip-rule="evenodd" d="M370.431 103.934C368.497 103.526 366.616 103.109 364.787 102.684V70.9621H357.126V65.3175H364.787V61.6887H370.431V65.3175H409.189C412.68 66.3523 415.658 67.3481 418.125 68.3075C420.078 69.0669 421.95 69.9512 423.746 70.9621H409.662L404.761 79.9006C407.915 80.4023 410.347 83.6103 410.347 87.493C410.347 89.5425 409.67 91.404 408.566 92.7787L410.279 124.99H419.621L419.461 126.204L419.502 126.28L419.563 126.394C419.599 126.46 419.636 126.53 419.676 126.603C419.777 126.792 419.889 127.004 420.005 127.232C420.463 128.128 421.007 129.305 421.321 130.48C421.63 131.638 421.74 132.89 421.21 133.869C420.723 134.77 419.761 135.329 418.245 135.449L417.605 140.311H436.958V82.3148C437.513 83.0037 438.058 83.7133 438.591 84.4439C440.155 86.6266 441.492 88.9228 442.603 91.3305V131.766C439.325 139.079 434.091 145.49 426.868 150.969C413.555 161.067 396.169 166.116 374.61 166.116C371.224 166.116 367.95 165.995 364.787 165.754V149.988H358.739V140.311H364.787V126.53C366.547 127.087 368.429 127.513 370.431 127.807V140.311H390.764L393.847 124.251C394.249 123.873 394.6 123.469 394.902 123.037L391.585 140.311H403.493L401.477 124.99H409.472L407.802 93.5911C406.717 94.5715 405.364 95.1537 403.896 95.1537C402.641 95.1537 401.469 94.7279 400.478 93.9913L396.13 116.637C396.028 116.008 395.87 115.406 395.656 114.833L399.774 93.3854C398.351 91.9802 397.445 89.8622 397.445 87.493C397.445 83.5763 399.921 80.3461 403.115 79.888L399.083 70.9621H370.431V103.934ZM399.968 70.9621L403.931 79.7365L408.742 70.9621H399.968ZM418.352 134.63C419.583 134.499 420.202 134.038 420.501 133.486C420.878 132.789 420.838 131.798 420.542 130.688C420.25 129.596 419.737 128.479 419.287 127.599L419.279 127.584L418.352 134.63Z" fill="#99E1EF"/>
</svg>
