<svg width="409" height="193" viewBox="0 0 409 193" fill="none" xmlns="http://www.w3.org/2000/svg">
<path d="M409 122.6V138.68H376.843V148.727H402.97V164.806H376.843V175.86H409V192.944H355.74V122.6H409Z" fill="#064C7F"/>
<path fill-rule="evenodd" clip-rule="evenodd" d="M132.972 192.944L137.279 179.074H156.439L160.482 192.944H182.894L160.438 122.6H137.235L110.541 192.944H132.972ZM141.014 163.734L146.815 143.34L149.716 153.537L152.616 163.734H141.014Z" fill="#064C7F"/>
<path d="M30.1475 192.944V122.6H57.5879L67.4665 158.862L77.345 122.6H104.511V192.944H86.126V143.866L73.7778 192.944H60.8808L48.807 143.866V192.944H30.1475Z" fill="#064C7F"/>
<path d="M279.366 192.944H258.263V122.6H279.366V192.944Z" fill="#064C7F"/>
<path fill-rule="evenodd" clip-rule="evenodd" d="M248.811 154.099C250.453 150.988 251.274 147.401 251.274 143.34C251.274 137.118 249.027 132.106 244.534 128.303C240.04 124.501 233.775 122.6 225.651 122.6H188.924V192.944H210.027V165.811H217.355L227.639 192.944H251.577L238.83 162.265C243.842 159.932 247.169 157.21 248.811 154.099ZM226.298 149.346C224.657 150.469 222.453 150.737 219.774 150.737H214.9H210.027V137.673H220.509C226.039 137.673 228.805 139.84 228.805 144.334C228.761 146.537 227.94 148.179 226.298 149.346Z" fill="#064C7F"/>
<path d="M287.405 122.6V192.944H305.521V150.955L329.585 192.944H347.7V122.6H330.396V159.68L308.765 122.6H287.405Z" fill="#064C7F"/>
<path fill-rule="evenodd" clip-rule="evenodd" d="M155.566 179.073C155.624 178.73 155.789 178.434 156.175 178.203C156.669 177.907 156.844 178.1 157.084 178.362L157.111 178.393C159.431 180.925 162.613 180.899 163.627 180.891H163.627L163.628 180.891C163.678 180.891 163.723 180.89 163.762 180.89C164.125 180.89 164.276 181.21 164.447 181.571C164.667 182.037 164.919 182.57 165.698 182.57C166.804 182.57 166.712 180.704 166.528 179.77C167.557 179.075 167.842 178.488 168.041 178.075C168.163 177.823 168.254 177.636 168.463 177.53C168.663 177.429 168.933 177.546 169.224 177.672C169.741 177.895 170.322 178.146 170.676 177.25C171.229 175.85 169.569 175.29 168.463 175.01C167.805 174.844 167.245 174.083 166.725 173.375L166.725 173.375C166.37 172.894 166.034 172.437 165.698 172.21C164.869 171.65 164.039 170.81 165.422 170.81C166.804 170.81 168.74 169.69 166.528 169.13C164.316 168.57 162.38 169.13 161.274 169.69C160.687 169.987 160.567 169.969 160.295 169.928C160.055 169.892 159.694 169.839 158.785 169.97C157.735 170.122 157.092 170.356 156.59 170.539L156.59 170.539C156.168 170.693 155.846 170.81 155.467 170.81C155.105 170.81 154.901 170.703 154.671 170.583C154.374 170.428 154.034 170.25 153.255 170.25C151.722 170.25 149.936 171.09 150.766 172.21C151.077 172.63 151.893 172.945 152.679 173.249C153.219 173.458 153.746 173.662 154.084 173.89C154.914 174.45 154.702 175.622 153.808 176.69C153.414 177.157 152.891 178.094 152.957 179.073H155.566Z" fill="#A3ACC9"/>
<path fill-rule="evenodd" clip-rule="evenodd" d="M141.27 162.835L141.014 163.734H141.05C140.886 163.974 140.615 164.035 140.186 163.801C138.712 162.997 137.622 160.724 137.262 159.688C137.038 158.078 137.878 156.495 138.5 155.73C139.833 154.081 140.149 152.272 138.913 151.408C138.409 151.056 137.624 150.741 136.818 150.419C135.647 149.95 134.431 149.463 133.967 148.815C132.731 147.086 135.392 145.789 137.676 145.789C138.837 145.789 139.344 146.064 139.787 146.304C140.129 146.489 140.433 146.654 140.973 146.654C141.538 146.654 142.018 146.473 142.647 146.235L142.647 146.235C143.394 145.953 144.353 145.592 145.918 145.357C146.036 145.34 146.148 145.324 146.255 145.31L142.692 157.836C142.518 157.827 142.307 157.891 142.028 158.065C141.354 158.482 141.132 159.039 141.089 159.688C141.053 159.868 141.099 160.299 141.154 160.82C141.221 161.453 141.303 162.219 141.27 162.835ZM152.181 162.206C152.569 162.219 152.892 162.216 153.134 162.214H153.134H153.134C153.209 162.213 153.277 162.213 153.335 162.213C153.875 162.213 154.1 162.707 154.355 163.264C154.683 163.982 155.059 164.806 156.22 164.806C157.868 164.806 157.731 161.925 157.456 160.484C158.991 159.411 159.414 158.505 159.711 157.868C159.893 157.479 160.028 157.19 160.341 157.026C160.637 156.871 161.041 157.051 161.475 157.245C162.245 157.59 163.11 157.977 163.637 156.594C164.461 154.433 161.989 153.569 160.341 153.137C159.36 152.88 158.525 151.705 157.75 150.613L157.75 150.613C157.222 149.87 156.721 149.165 156.22 148.815C154.984 147.95 153.747 146.654 155.808 146.654C157.868 146.654 160.753 144.925 157.456 144.061C154.159 143.196 151.275 144.061 149.627 144.925C148.753 145.383 148.574 145.356 148.169 145.293C147.978 145.263 147.738 145.226 147.352 145.228L149.716 153.537L152.181 162.206Z" fill="#A3ACC9"/>
<path fill-rule="evenodd" clip-rule="evenodd" d="M54.6673 167.688L54.1982 165.781C54.3278 165.688 54.4923 165.614 54.6904 165.567C55.2704 165.427 55.7004 165.865 56.1663 166.34L56.1663 166.34C56.6322 166.814 57.134 167.325 57.8573 167.332C59.3039 167.345 59.0224 166.474 57.873 165.596C57.6977 165.462 57.5224 165.334 57.3522 165.211C56.406 164.524 55.6171 163.952 55.8712 162.973C56.171 161.819 57.615 162.121 58.1884 162.705C58.7619 163.289 59.0564 162.713 59.3562 161.558C59.656 160.403 60.5318 159.543 61.3972 159.84C62.2625 160.138 62.5335 162.166 62.2311 163.61C62.0295 164.572 62.3516 164.511 63.1031 164.368C63.4788 164.296 63.9619 164.204 64.5405 164.209C66.2765 164.225 66.5604 164.806 66.5579 165.095C66.5544 165.505 65.8291 165.631 64.8194 165.369C63.6647 165.069 61.9183 166.211 61.0399 167.36C60.1614 168.51 62.768 168.244 63.9279 167.965C65.0878 167.686 65.364 169.135 63.6281 169.12C61.8921 169.104 60.151 169.667 59.5619 170.819C58.9727 171.971 62.1605 171.421 62.7418 171.137C63.3231 170.853 65.0588 170.869 64.4725 171.732C64.146 172.212 62.6878 172.519 61.0695 172.86C60.2698 173.029 59.4309 173.205 58.6702 173.415C57.9503 173.614 57.2025 174.212 56.4675 175.005L55.6162 171.544C56.0203 171.616 56.3726 171.527 56.3793 170.79C56.3897 169.633 56.3976 168.765 54.9588 167.884C54.854 167.82 54.7569 167.754 54.6673 167.688ZM57.395 178.775C57.8984 178.555 58.4791 178.456 58.9492 178.429C59.9907 178.369 61.4711 177.559 61.1611 176.372C60.8512 175.184 59.1641 175.201 58.6219 175.554C58.2589 175.79 57.3635 176.166 56.7493 176.15L57.395 178.775Z" fill="#A3ACC9"/>
<path fill-rule="evenodd" clip-rule="evenodd" d="M39.2055 192.943L48.807 192.943V190.012C47.8776 190.992 46.7436 191.835 45.5441 192.01C42.5532 192.447 43.2434 189.823 44.6238 188.511C44.6882 188.45 44.7525 188.389 44.8164 188.328L44.8172 188.328C46.1234 187.09 47.2864 185.989 46.4644 185.012C45.5441 183.918 44.1638 184.575 43.7035 185.449C42.9543 186.873 41.8629 186.105 42.5531 185.012C42.7182 184.75 42.9227 184.476 43.132 184.196C43.7983 183.303 44.514 182.345 44.1638 181.513C43.7035 180.419 42.323 180.857 41.863 181.075C41.4029 181.294 40.0224 181.732 40.9427 179.763C41.863 177.795 40.9427 176.92 40.4825 176.702C40.0224 176.483 38.6419 176.483 37.9517 177.358C37.2615 178.232 36.6749 177.04 37.2615 176.483C37.9517 175.827 38.1816 174.952 37.7215 174.733C37.2615 174.515 36.4633 174.771 36.111 175.608C35.6509 176.702 34.5005 176.92 34.0403 175.389C33.5802 173.859 32.1997 173.421 31.2794 174.296C30.8193 174.733 30.3591 175.608 31.0493 176.483C31.6405 177.232 31.7254 177.821 30.1475 177.837V180.99C30.4079 180.959 30.7069 180.916 31.0493 180.857C33.074 180.507 32.9109 181.513 32.6599 182.388C32.4298 183.189 32.4298 184.575 33.5802 185.231C34.0158 185.479 34.5588 185.41 35.0444 185.348C35.4918 185.29 35.8903 185.24 36.111 185.449C36.441 185.763 36.1624 186.218 35.8991 186.648C35.5134 187.278 35.1605 187.855 36.8012 187.855C37.1594 187.855 37.5098 187.851 37.8469 187.848L37.847 187.848C40.1087 187.824 41.7733 187.806 41.1727 188.948C40.894 189.478 40.2779 189.758 39.6724 190.034C38.7782 190.44 37.9073 190.836 38.1817 192.01C38.2719 192.396 38.6495 192.702 39.2055 192.943Z" fill="#A3ACC9"/>
<path fill-rule="evenodd" clip-rule="evenodd" d="M86.1264 153.659C86.6137 153.067 86.7774 152.783 86.9544 152.293C87.173 151.684 87.3753 150.471 87.377 149.749C87.3787 149.002 87.1955 148.166 86.7811 147.039L86.7319 146.905L86.7313 146.904C86.6701 146.737 86.6051 146.56 86.5723 146.468C86.4621 146.167 86.3094 145.683 86.2647 145.488C86.1465 144.966 86.2304 144.085 86.4752 143.31C86.5459 143.085 86.6339 142.846 86.7385 142.595C87.2405 143.526 87.4998 144.155 87.7176 144.926C87.9172 145.632 88.0089 146.202 88.057 147.033C88.1238 148.206 88.0364 149.164 87.7938 149.91C87.7358 150.097 87.6021 150.438 87.498 150.668C87.2638 151.191 87.1846 151.479 87.1783 151.818C87.1636 152.595 87.294 153.317 87.543 153.853C87.7225 154.235 87.934 154.523 88.3777 154.98C88.5876 155.193 88.7219 155.284 88.7983 155.263C88.8566 155.246 88.9135 155.148 88.9176 155.055C88.9253 154.852 88.8622 154.744 88.5133 154.369C88.1182 153.946 87.9663 153.723 87.8308 153.367C87.7174 153.065 87.6389 152.457 87.655 152C87.6637 151.738 87.7127 151.581 87.9478 151.062C88.2513 150.387 88.4338 149.712 88.5107 148.93C88.5546 148.972 88.6215 148.969 88.6602 148.916C88.7061 148.851 88.7181 148.763 88.7367 148.316C88.7457 148.118 88.7921 147.717 88.8619 147.223C88.9219 146.794 88.9807 146.349 88.9898 146.23C89.0641 145.344 88.9459 144.546 88.646 143.927C88.4158 143.448 88.3564 143.264 88.3138 142.896C88.2472 142.322 88.2905 141.879 88.4538 141.483C88.4931 141.526 88.5348 141.57 88.5794 141.617C88.9006 141.955 89.1886 142.307 89.3275 142.53C89.5876 142.943 89.6974 143.416 89.6827 144.071C89.6744 144.441 89.6324 144.63 89.4477 145.128C89.2065 145.772 89.1629 146.578 89.3191 147.453C89.3391 147.57 89.4391 148.008 89.5387 148.43C89.654 148.915 89.7375 149.31 89.7648 149.507C89.8248 149.949 89.8449 150.036 89.8966 150.096C89.9513 150.159 90.0426 150.137 90.0712 150.053C90.0965 149.982 90.063 149.61 90.0016 149.269C89.9816 149.153 89.8834 148.721 89.7856 148.305C89.6867 147.894 89.5874 147.435 89.5625 147.285C89.445 146.533 89.4961 145.956 89.7394 145.277C89.7403 145.436 89.744 145.609 89.75 145.804C89.7984 147.476 90.0704 148.602 90.6903 149.697C90.9727 150.192 91.036 150.343 91.0688 150.603C91.1274 151.057 91.1057 151.669 91.0207 151.98C90.9189 152.348 90.7884 152.584 90.4343 153.042C90.1217 153.447 90.0689 153.561 90.0954 153.763C90.1081 153.855 90.1739 153.947 90.2335 153.958C90.3115 153.972 90.4368 153.869 90.626 153.637C91.0254 153.141 91.2092 152.835 91.3525 152.438C91.4016 152.3 91.4424 152.151 91.4747 151.994C91.6011 152.492 91.7607 152.984 91.9087 153.301C92.1691 153.854 92.385 154.127 93.1777 154.897C93.7948 155.499 93.8122 155.515 93.8966 155.491C93.993 155.464 94.0297 155.409 94.0351 155.275C94.0464 155.023 93.9204 154.861 93.1551 154.134C92.7933 153.79 92.6982 153.684 92.547 153.471C92.2789 153.091 92.0658 152.552 91.8915 151.804C91.7283 151.111 91.694 150.821 91.7088 150.343C91.722 149.975 91.7518 149.735 91.8458 149.269L91.8477 149.26C91.8758 149.119 91.8937 149.028 91.9136 148.939C91.9485 148.781 91.9895 148.624 92.1027 148.192L92.124 148.111C92.4528 146.864 92.4992 146.514 92.4251 145.867C92.33 145.07 92.1241 144.403 91.7083 143.553C91.4702 143.069 91.2845 142.755 90.7775 141.989C90.9146 141.609 91.0869 141.192 91.3106 140.689C91.3207 140.733 91.3318 140.776 91.3438 140.819C91.4719 141.272 91.6542 141.595 92.04 142.031C91.913 142.622 91.9312 143.198 92.0971 143.531C92.3664 144.074 92.4663 144.419 92.5402 145.066C92.6518 146.049 92.5658 147.056 92.3176 147.654C92.2031 147.929 92.2005 148.036 92.309 148.069C92.3674 148.086 92.3923 148.078 92.4403 148.013C92.6093 147.788 92.7837 147.13 92.8335 146.526C92.8476 146.356 92.857 146.15 92.8616 145.942C92.9141 146.038 92.982 146.154 93.0724 146.307C93.6558 147.297 93.8598 148.111 93.6619 148.678C93.6245 148.784 93.5624 148.917 93.5197 148.974C93.4331 149.097 93.3953 149.216 93.4184 149.298C93.4269 149.329 93.447 149.359 93.4717 149.385C93.3832 149.643 93.3234 149.9 93.2743 150.203C93.1655 150.896 93.2103 151.344 93.4443 151.917C93.5222 152.105 93.6403 152.42 93.7062 152.616C93.7721 152.811 93.863 153.078 93.9094 153.206C94.033 153.572 94.1539 153.665 94.2969 153.511C94.4002 153.4 94.4343 153.226 94.3905 153.038C94.3428 152.836 94.0099 151.878 93.8643 151.528C93.7119 151.157 93.6587 150.824 93.6925 150.434C93.7344 149.965 93.9259 149.387 94.2061 148.892C94.5521 148.283 94.5624 148.261 94.601 148.052C94.6741 147.655 94.6443 147.23 94.5215 146.894C94.4326 146.651 94.2856 146.401 94.0319 146.061C93.4837 145.326 93.362 145.007 93.4342 144.501C93.4877 144.128 93.612 143.806 93.8637 143.394C94.5368 144.295 94.8924 144.964 94.9863 145.494C95.0043 145.592 95.0176 145.71 95.0287 145.896C95.0221 146.094 95.03 146.287 95.052 146.473C95.0544 146.551 95.0567 146.636 95.059 146.727C95.0752 147.352 95.0653 147.532 94.9799 148.037C94.878 148.651 94.7676 149.581 94.7534 149.923C94.7295 150.644 94.9179 151.15 95.5927 152.171C95.8164 152.51 96.0325 152.899 96.1453 153.16C96.2719 153.454 96.402 153.915 96.4547 154.247C96.5164 154.642 96.5562 154.76 96.6557 154.851C96.8028 154.98 96.9415 154.879 96.9525 154.634C96.9616 154.421 96.8902 154.022 96.7636 153.574C96.5729 152.899 96.4314 152.605 95.8656 151.716C95.4465 151.055 95.3484 150.861 95.2758 150.558C95.2357 150.386 95.2215 150.274 95.2276 150.119C95.2376 149.847 95.3562 148.877 95.4505 148.312C95.4826 148.12 95.5125 147.9 95.5275 147.764C95.5556 147.801 95.5848 147.837 95.615 147.872C95.745 148.019 95.84 148.057 95.9129 147.984C96.0218 147.877 95.9913 147.732 95.816 147.543C95.708 147.427 95.6139 147.279 95.5367 147.109C95.5274 146.583 95.5019 145.879 95.4797 145.682C95.462 145.525 95.4297 145.364 95.3828 145.197C95.4084 145.066 95.4371 144.95 95.465 144.875C95.4904 144.807 95.6428 144.498 95.8041 144.188C96.059 143.696 96.1833 143.417 96.2613 143.132C96.2982 143.36 96.2929 143.592 96.2502 143.962C96.1638 144.709 96.1634 145.414 96.2524 145.882C96.3032 146.154 96.3417 146.252 96.546 146.637C96.6827 146.898 96.7279 147.005 96.8159 147.293C96.9965 147.867 97.0423 148.304 97.035 149.445C97.003 149.539 96.9711 149.648 96.9516 149.732C96.846 150.189 96.9142 150.521 97.2052 150.958C97.3742 151.216 97.4192 151.317 97.4682 151.546C97.519 151.789 97.6345 151.854 97.7719 151.719C97.8495 151.643 97.8598 151.622 97.8931 151.442C97.9226 151.27 97.9227 151.224 97.8811 151.046C97.8428 150.886 97.7952 150.787 97.651 150.567C97.4302 150.233 97.3867 150.135 97.385 149.972C97.3839 149.828 97.3945 149.793 97.6225 149.202C98.1483 147.836 98.2741 146.486 97.9948 145.192C97.8842 144.675 97.7414 144.229 97.4451 143.441C97.1753 142.728 97.0994 142.437 97.1094 142.153C97.1124 142.088 97.1232 142.01 97.1487 141.892C97.2663 142.373 97.5333 142.905 98.5425 144.741C99.5348 146.549 99.7682 147.375 99.552 148.315C99.49 148.594 99.4509 148.694 99.1885 149.255C98.8951 149.883 98.7856 150.394 98.7581 151.257C98.749 151.532 98.7548 151.929 98.7688 152.139C98.7913 152.48 98.8062 152.571 98.8951 152.924C99.0635 153.582 99.2628 153.995 99.615 154.42C99.7232 154.55 99.8829 154.746 99.9737 154.86C100.225 155.181 100.333 155.273 100.43 155.246C100.613 155.194 100.589 154.881 100.38 154.572C100.322 154.489 100.17 154.297 100.041 154.147C99.6951 153.744 99.5874 153.57 99.4398 153.186C99.3355 152.909 99.2505 152.5 99.2326 152.168C99.2094 151.756 99.2449 150.983 99.3025 150.657C99.369 150.27 99.4416 150.059 99.6779 149.566C100.042 148.803 100.16 148.194 100.084 147.456C100.061 147.245 100.031 147.107 99.9222 146.722C99.7047 145.952 99.4722 145.46 98.4001 143.508C97.8631 142.529 97.7367 142.258 97.6251 141.871C97.5545 141.629 97.5262 141.49 97.5187 141.356C97.493 140.952 97.5331 140.565 97.6629 140.053C97.7305 139.823 97.7905 139.616 97.8438 139.427L97.96 139.055L98.0966 139.047C99.4104 138.18 100.025 136.475 98.9798 133.495C97.9346 130.515 93.7778 127.955 88.5974 128.196C82.5136 128.479 80.4427 131.31 79.0263 133.598C77.9704 135.303 78.2346 137.882 78.9577 138.733L79.0172 138.7C79.1373 138.633 79.2174 138.588 79.2701 138.561C79.2936 138.576 79.3195 138.592 79.3476 138.608C79.2973 138.815 79.2755 139.24 79.3019 139.522C79.3541 140.083 79.5126 140.602 80.0586 141.978C79.9694 142.236 79.8287 142.576 79.5818 143.146C78.6955 145.188 78.5097 145.7 78.3647 146.487C78.2922 146.88 78.2748 147.02 78.2717 147.233C78.2644 147.975 78.4391 148.57 78.872 149.296C79.153 149.765 79.2449 149.968 79.3471 150.347C79.4346 150.667 79.5417 151.433 79.5569 151.846C79.5699 152.178 79.5232 152.592 79.4451 152.878C79.3338 153.274 79.2427 153.457 78.9356 153.89C78.8208 154.053 78.6874 154.258 78.6373 154.345C78.4581 154.672 78.4638 154.986 78.6507 155.021C78.7492 155.039 78.8487 154.937 79.069 154.595C79.1488 154.473 79.2895 154.262 79.3852 154.123C79.6965 153.668 79.8565 153.237 79.9632 152.567C80.0189 152.207 80.0252 152.115 80.0161 151.774C80.0104 151.563 79.9793 151.167 79.9447 150.894C79.8373 150.038 79.6808 149.539 79.3304 148.941C79.017 148.407 78.9688 148.311 78.8811 148.038C78.5786 147.123 78.7344 146.278 79.5546 144.387C79.901 143.589 80.1409 143.026 80.3082 142.606C80.7246 143.66 80.8297 143.958 80.856 144.147C80.8924 144.429 80.8438 144.726 80.6414 145.461C80.4195 146.272 80.3188 146.73 80.2566 147.255C80.0987 148.57 80.3493 149.902 80.9997 151.213C81.2815 151.781 81.2953 151.814 81.3075 151.957C81.321 152.12 81.2868 152.222 81.098 152.575C80.9749 152.807 80.9366 152.91 80.9133 153.073C80.8884 153.254 80.8929 153.301 80.9381 153.468C80.988 153.645 81.0003 153.665 81.0846 153.733C81.2339 153.855 81.3428 153.78 81.3709 153.533C81.3985 153.301 81.4338 153.195 81.5782 152.923C81.8273 152.461 81.8644 152.124 81.7168 151.678C81.6743 151.551 81.5958 151.365 81.5423 151.268C80.9418 150.164 80.662 149.112 80.6905 148.069C80.7081 147.417 80.7939 146.93 81.0498 145.992C81.3055 145.062 81.368 144.707 81.3416 144.33C81.3182 143.955 81.2385 143.719 80.5431 141.97C80.6437 141.659 80.6806 141.454 80.7003 141.226C80.7651 140.471 80.6481 139.793 80.3018 138.943L80.1252 138.507L80.3274 138.401C80.3472 138.39 80.3717 138.376 80.3998 138.359C80.5014 138.385 80.6089 138.41 80.7225 138.434C80.9346 138.532 81.1512 138.616 81.3453 138.675C81.6125 138.753 81.6154 138.756 81.6497 138.862C81.6686 138.921 81.7304 139.07 81.787 139.194C81.8895 139.42 82.0682 140.006 82.1546 140.378C82.0917 140.54 82.016 140.719 81.9229 140.928C81.3589 142.19 81.2942 142.622 81.5126 143.625C81.5363 143.734 81.5578 143.848 81.5769 143.963C81.5824 144.171 81.6086 144.377 81.6557 144.586C81.6816 144.886 81.6869 145.163 81.667 145.366C81.6523 145.504 81.6266 145.585 81.5135 145.865C81.4395 146.048 81.3458 146.314 81.3053 146.453C81.1635 146.956 81.1074 147.629 81.1548 148.304C81.1911 148.844 81.3299 150.13 81.3591 150.178C81.3936 150.245 81.4687 150.252 81.5196 150.195C81.5985 150.113 81.5966 149.916 81.5147 149.151C81.3789 147.849 81.3762 147.392 81.5106 146.767C81.5714 146.472 81.6066 146.362 81.7184 146.089C81.8745 145.714 81.9106 145.601 81.9353 145.365C82.0307 145.551 82.1588 145.763 82.3447 146.052C82.534 146.346 82.7144 146.639 82.7461 146.705C82.7625 146.739 82.7799 146.782 82.7976 146.831C82.8058 146.917 82.8133 146.985 82.8197 147.025C82.8368 147.128 82.901 147.413 82.9647 147.655C82.9819 147.72 83 147.791 83.0186 147.866C83.0513 148.462 82.9124 149.046 82.6443 149.393C82.4873 149.598 82.4704 149.746 82.5887 149.842C82.6681 149.908 82.7592 149.862 82.8749 149.703C83.0492 149.461 83.1718 149.165 83.2407 148.834C83.2968 149.099 83.34 149.323 83.3544 149.433C83.3748 149.587 83.3711 149.7 83.3472 149.875C83.303 150.184 83.2233 150.386 82.8675 151.083C82.3867 152.021 82.273 152.326 82.1458 153.016C82.0614 153.474 82.0273 153.877 82.0561 154.089C82.0899 154.332 82.2373 154.419 82.3717 154.278C82.4624 154.178 82.4911 154.056 82.5158 153.658C82.5374 153.322 82.6242 152.851 82.7229 152.546C82.811 152.276 82.9901 151.869 83.1814 151.511C83.6916 150.556 83.8606 150.039 83.8302 149.436C83.8452 149.555 83.8688 149.673 83.9013 149.787C83.9592 149.992 83.9715 150.013 84.3725 150.587C84.388 150.61 84.4032 150.632 84.4183 150.655L84.576 150.028C84.3409 149.68 84.3015 149.586 84.2899 149.381C84.2693 149.07 84.3639 148.784 84.6467 148.313C84.7424 148.47 84.8548 148.6 84.9137 148.611C84.9196 148.612 84.9259 148.612 84.9325 148.611L85.0255 148.241C85.005 148.206 84.9792 148.17 84.9485 148.134C84.9198 148.103 84.8814 148.044 84.8451 147.98C85.02 147.676 85.0933 147.503 85.1651 147.264C85.3186 146.748 85.2845 146.234 85.0522 145.646C85.0819 145.578 85.1134 145.508 85.1464 145.438C85.4009 144.899 85.4402 144.789 85.4849 144.501C85.5451 144.105 85.508 143.915 85.2535 143.292C85.062 142.819 85.005 142.623 85.0223 142.411C85.3979 142.992 85.5776 143.384 85.6998 143.881C85.7559 144.114 85.7862 144.265 85.783 144.416C85.778 144.465 85.7735 144.514 85.7696 144.563C85.7454 144.716 85.6884 144.893 85.5917 145.165C85.4873 145.464 85.389 146.091 85.3719 146.576C85.3697 146.644 85.3718 146.736 85.3774 146.843L86.1264 143.866V146.781C86.1662 146.893 86.2101 147.015 86.2582 147.146L86.2869 147.225C86.4397 147.645 86.4951 147.797 86.5445 147.951C86.5726 148.038 86.5988 148.126 86.6399 148.264L86.6427 148.274C86.7795 148.729 86.8315 148.965 86.8788 149.33C86.9379 149.804 86.9307 150.096 86.8325 150.801C86.7283 151.562 86.5662 152.119 86.3346 152.522C86.2664 152.64 86.2107 152.728 86.1264 152.838V153.659ZM86.1264 149.603C86.1434 149.606 86.1615 149.601 86.185 149.592C86.2899 149.548 86.2775 149.443 86.1379 149.179C86.134 149.172 86.1302 149.165 86.1264 149.157V149.603ZM82.6682 139.616C82.7449 139.261 82.7706 138.959 82.7446 138.699C82.9141 138.711 83.0903 138.722 83.2735 138.731C83.2282 138.993 83.174 139.348 83.1417 139.612C82.9783 140.953 83.0173 142.087 83.2602 143.104C83.1726 143.277 83.0987 143.434 83.0434 143.567C82.8176 144.112 82.7 144.6 82.6914 145.039C82.6883 145.198 82.7137 145.687 82.7444 146.145C82.6863 146.052 82.6164 145.943 82.5307 145.812C82.1755 145.269 82.0595 145.043 81.964 144.712C81.9563 144.686 81.949 144.659 81.9422 144.633C81.9275 144.41 81.8998 144.168 81.8602 143.916C81.8605 143.897 81.8611 143.878 81.8618 143.859C81.8767 143.436 81.9387 143.218 82.27 142.378C82.5065 141.787 82.5569 141.466 82.5014 140.886C82.4888 140.748 82.4636 140.587 82.4293 140.416C82.5384 140.122 82.6096 139.879 82.6682 139.616ZM83.5984 142.482C83.4476 141.396 83.5155 140.131 83.796 138.753C83.8771 138.756 83.9595 138.759 84.0431 138.761C84.2578 139.092 84.3711 139.322 84.4399 139.553C84.4597 139.62 84.4767 139.692 84.4909 139.765C84.3494 140.304 84.3217 140.77 84.4052 141.181L84.3983 141.195C84.36 141.264 84.2489 141.44 84.1547 141.583C83.9627 141.871 83.7711 142.182 83.5984 142.482ZM84.7672 138.906C84.748 138.859 84.7292 138.815 84.7097 138.772L84.8426 138.772L84.8058 138.859C84.7959 138.883 84.786 138.906 84.7764 138.93L84.7672 138.906ZM85.0807 139.064C85.1301 138.945 85.1675 138.848 85.1925 138.772C85.4348 138.771 85.6857 138.768 85.9455 138.763C85.7624 139.133 85.6769 139.442 85.662 139.754C85.6467 140.053 85.6714 140.286 85.7523 140.593C85.701 140.673 85.644 140.753 85.5812 140.836C85.2169 141.318 85.0392 141.563 84.937 141.764C84.8649 141.649 84.8236 141.576 84.7927 141.508C84.8295 141.441 84.8547 141.386 84.8739 141.329C84.9059 141.233 84.9213 141.131 84.9465 140.964L84.9465 140.964L84.9482 140.953C85.0335 140.4 85.0282 139.903 84.9313 139.446C84.9764 139.321 85.0263 139.193 85.0807 139.064ZM86.4059 139.143C86.4684 139.029 86.5466 138.9 86.6458 138.744C86.91 138.736 87.1826 138.725 87.4638 138.712L87.5085 138.71C87.5436 138.881 87.5642 139.035 87.5732 139.187C87.5846 139.356 87.5755 139.451 87.5179 139.764L87.451 140.138L87.0392 140.908C86.9004 141.167 86.7898 141.378 86.6974 141.56C86.3452 140.941 86.2219 140.678 86.1718 140.43C86.2592 140.234 86.3164 140.038 86.358 139.813C86.3977 139.594 86.4139 139.372 86.4059 139.143ZM88.4369 138.671C88.454 138.67 88.4711 138.67 88.4881 138.669C88.89 138.654 89.2713 138.642 89.6335 138.632C89.641 138.843 89.616 138.978 89.532 139.215C89.4337 139.484 89.2987 139.709 89.0347 140.047C88.7599 140.396 88.5498 140.697 88.4002 140.956C88.2838 140.806 88.2003 140.671 88.128 140.519C88.0221 140.29 87.9847 140.157 87.9727 139.946C87.9717 139.927 87.9711 139.908 87.9709 139.889C88.0002 139.743 88.0202 139.599 88.0306 139.454C88.0579 139.353 88.0948 139.247 88.142 139.132C88.2037 138.982 88.2609 138.816 88.2705 138.765C88.2844 138.676 88.2864 138.676 88.4369 138.671ZM90.1866 139.273C90.2403 139.013 90.2823 138.797 90.3135 138.618C90.7195 138.611 91.0989 138.607 91.4537 138.606L91.4017 138.797C91.3135 139.116 91.2593 139.414 91.2383 139.698C91.1834 139.828 91.1165 139.98 91.0353 140.159C90.7926 140.698 90.6077 141.128 90.4608 141.509L90.2857 141.244L90.1843 140.878C90.0979 140.572 90.0801 140.478 90.0757 140.309C90.0656 140.012 90.0988 139.7 90.1866 139.273ZM91.9452 138.678C92.1785 138.722 92.3865 138.7 92.5691 138.613C92.6888 138.615 92.8051 138.618 92.918 138.62C92.9933 138.866 93.0361 139.085 93.0418 139.264C92.9497 139.452 92.8971 139.59 92.8436 139.769C92.7877 139.957 92.7489 140.149 92.7274 140.347L92.658 140.478C92.399 140.965 92.2464 141.31 92.1333 141.677C91.7236 141.206 91.545 140.79 91.5126 140.24C91.7569 139.691 91.8314 139.469 91.8895 139.154C91.9224 138.976 91.9407 138.825 91.9452 138.678ZM93.2735 138.826C93.2625 138.761 93.2493 138.695 93.2338 138.628L93.3806 138.632L93.3024 138.774L93.2735 138.826ZM93.6986 139.285C93.8336 139.042 93.9823 138.764 94.0304 138.657L94.0692 138.658C94.2229 139.526 94.2688 140.337 94.2029 141.07C94.1529 141.626 94.0217 142.119 93.8172 142.521C93.7788 142.472 93.7403 142.424 93.7019 142.377C93.5948 142.243 93.4679 142.078 93.4233 142.013C93.2128 141.697 93.1226 140.933 93.2294 140.382C93.2878 140.089 93.4141 139.791 93.6986 139.285ZM95.4385 138.877C95.5191 138.847 95.5974 138.805 95.6702 138.752C96.2687 138.79 96.6347 138.801 96.9534 138.728C97.0626 138.781 97.1593 138.827 97.2172 138.853L97.4284 138.94L97.293 139.39C97.1709 139.794 97.0935 140.157 97.0587 140.504C96.6769 141.818 96.6327 142.047 96.6429 142.38C96.6517 142.758 96.7469 143.105 97.0878 144.008C97.4296 144.918 97.5603 145.395 97.6383 146.042C97.7424 146.904 97.635 147.791 97.3111 148.729C97.2901 148.074 97.1733 147.434 96.9911 146.961C96.9378 146.826 96.8199 146.57 96.7292 146.395C96.5907 146.127 96.5575 146.048 96.5301 145.913C96.4511 145.503 96.4482 144.778 96.5222 144.165C96.6043 143.491 96.5865 143.077 96.369 142.527C96.4022 142.15 96.3693 141.784 96.2701 141.408C96.1986 141.128 96.1078 140.918 95.8086 140.33C95.5069 139.737 95.4239 139.43 95.4385 138.877ZM80.2423 141.204C80.2579 141.091 80.2627 141.005 80.2596 140.921C80.2438 140.385 80.1161 139.892 79.7907 139.112L79.7865 139.101C79.755 139.307 79.7589 139.496 79.7933 139.74C79.8445 140.098 79.9296 140.392 80.2423 141.204ZM82.4564 138.743C82.26 138.791 82.0769 138.809 81.9417 138.789C81.908 138.785 81.9125 138.801 81.9829 138.958C82.1 139.219 82.2177 139.568 82.3122 139.919C82.3464 139.802 82.3753 139.687 82.4012 139.566C82.4611 139.288 82.4784 139.171 82.4776 139.014C82.4778 138.917 82.4704 138.826 82.4564 138.743ZM82.233 140.905C82.2039 140.974 82.1729 141.046 82.1399 141.121C81.8532 141.778 81.7637 142.022 81.7108 142.308C81.6669 142.546 81.6591 142.739 81.6941 143.003C81.7474 142.817 81.8319 142.589 81.9819 142.211C82.2 141.661 82.2671 141.353 82.233 140.905ZM83.458 143.787C83.2842 144.183 83.189 144.518 83.1653 144.806C83.1475 145.006 83.1562 145.281 83.2073 146.04C83.2493 146.665 83.2759 146.843 83.4076 147.337C83.5662 147.939 83.7624 148.855 83.8083 149.194L83.8133 149.235C83.8043 149.021 83.8241 148.813 83.8729 148.627C83.9389 148.377 84.0621 148.114 84.283 147.752C84.3224 147.688 84.3591 147.626 84.3933 147.568C84.3633 147.317 84.378 147.044 84.4359 146.723C84.4875 146.443 84.5576 146.179 84.6597 145.893C84.5517 145.588 84.38 145.302 84.0972 144.944C83.8072 144.574 83.6166 144.237 83.458 143.787ZM84.8995 145.305C84.7563 145.016 84.5565 144.702 84.395 144.516C84.108 144.183 83.8867 143.737 83.7426 143.209C83.9383 142.847 84.1856 142.441 84.4883 141.984L84.5075 141.955C84.5511 141.889 84.5896 141.831 84.6237 141.779C84.6731 141.869 84.7352 141.971 84.8161 142.097C84.8081 142.129 84.8003 142.164 84.7924 142.2C84.7331 142.476 84.7307 142.489 84.7621 142.745C84.7906 142.97 84.8256 143.08 85.0015 143.519C85.2376 144.092 85.266 144.237 85.2125 144.527C85.1852 144.676 85.1444 144.781 85.0046 145.079C84.9675 145.157 84.9325 145.232 84.8995 145.305ZM84.6617 147.043C84.6762 146.848 84.7147 146.637 84.7769 146.411C84.7918 146.614 84.7585 146.806 84.6617 147.043ZM85.9156 143.632C85.9944 143.298 86.1036 142.952 86.2489 142.569C86.3162 142.392 86.379 142.237 86.451 142.075C86.4249 142.029 86.3984 141.982 86.3713 141.934C86.0924 141.447 85.9577 141.191 85.8677 140.958C85.8043 141.05 85.7333 141.146 85.6536 141.249C85.3492 141.644 85.1985 141.861 85.117 142.042L85.1328 142.066C85.456 142.557 85.6437 142.899 85.7953 143.282C85.8413 143.398 85.8815 143.515 85.9156 143.632ZM86.9782 142.06C87.6122 143.207 87.8663 143.816 88.1456 144.805C88.3898 145.669 88.4603 146.095 88.5226 147.099C88.5327 147.256 88.5403 147.408 88.5455 147.555C88.5637 147.419 88.584 147.269 88.6045 147.122C88.6647 146.704 88.721 146.237 88.7319 146.086C88.7804 145.305 88.6688 144.725 88.3434 144.048C88.2526 143.862 88.1546 143.61 88.1228 143.494C88.0507 143.218 88.0018 142.792 88.0079 142.46C88.014 142.105 88.1073 141.599 88.2144 141.328C88.2253 141.301 88.2372 141.274 88.2499 141.246C88.0584 141.006 87.9425 140.797 87.8333 140.52C87.8252 140.499 87.8174 140.478 87.8099 140.457C87.7431 140.623 87.6487 140.801 87.4828 141.094C87.294 141.429 87.1254 141.752 86.9782 142.06ZM88.5994 141.191C88.6311 141.226 88.6647 141.263 88.7003 141.3C89.1668 141.792 89.4733 142.185 89.6361 142.5C89.7474 142.719 89.8645 143.106 89.9217 143.434C90.0162 142.93 90.1147 142.518 90.2583 142.076C89.9816 141.673 89.9042 141.521 89.7882 141.18C89.6278 140.706 89.5707 140.259 89.6132 139.724C89.5123 139.913 89.3787 140.106 89.1845 140.351C88.9474 140.653 88.7334 140.961 88.5994 141.191ZM90.5881 142.562C90.4888 142.896 90.414 143.217 90.3498 143.565C90.2166 144.287 90.1783 144.863 90.2075 145.695C90.2499 146.869 90.4259 147.815 90.7367 148.535C90.8117 148.716 90.9765 149.043 91.1016 149.263C91.171 149.385 91.2297 149.495 91.2793 149.595C91.3348 149.142 91.4384 148.637 91.5934 148.053L91.6299 147.915C91.6755 147.743 91.724 147.56 91.7482 147.465C91.8301 147.156 91.9371 146.659 91.9635 146.461C92.0328 145.93 91.8675 145.061 91.5518 144.312C91.3327 143.789 91.0071 143.199 90.5881 142.562ZM92.7156 140.977C92.5379 141.333 92.4239 141.622 92.3475 141.914C92.9245 142.55 93.0076 142.681 93.1243 143.051C93.2089 143.32 93.2125 143.332 93.205 143.59C93.2043 143.612 93.2034 143.632 93.2023 143.652C93.2955 143.415 93.4204 143.162 93.5383 142.972C93.4956 142.918 93.4518 142.863 93.407 142.807L93.3848 142.78C93.1267 142.459 93.0252 142.333 92.9622 142.19C92.9214 142.098 92.8967 141.998 92.8559 141.834L92.8533 141.823C92.7791 141.528 92.7333 141.247 92.7156 140.977ZM94.138 142.942C94.4952 143.426 94.8156 143.914 94.9926 144.249C95.0827 144.42 95.1607 144.586 95.2265 144.746C95.2922 144.555 95.39 144.358 95.5965 143.966C95.8998 143.392 95.9943 143.157 96.0588 142.819C96.0752 142.733 96.0875 142.65 96.0955 142.568C96.013 142.373 95.8874 142.133 95.6651 141.73C95.3101 141.088 95.1393 140.714 94.9994 140.28C94.8345 139.758 94.7963 139.346 94.8834 139.002L94.9209 138.858L94.7616 138.801C94.718 138.785 94.6488 138.754 94.5736 138.718C94.7257 139.722 94.734 140.617 94.602 141.45C94.5 142.087 94.3701 142.513 94.138 142.942ZM95.1691 139.166C95.1287 139.299 95.1149 139.47 95.1332 139.663C95.147 139.819 95.175 139.934 95.2606 140.206C95.3885 140.613 95.5445 140.95 95.8632 141.517C95.9405 141.655 96.0104 141.782 96.0733 141.901C96.0185 141.518 95.9256 141.289 95.5373 140.523C95.2652 139.992 95.1779 139.682 95.1691 139.166ZM92.9524 144.676C92.8544 145.036 92.857 145.177 92.922 145.407C92.963 145.552 93.0134 145.653 93.1802 145.936C93.5517 146.56 93.7548 147.01 93.8992 147.521C93.9717 147.782 94.0117 148.013 94.0193 148.228C94.1603 147.96 94.1829 147.863 94.1763 147.683C94.1677 147.362 94.0395 147.078 93.6905 146.611C93.34 146.14 93.2281 145.952 93.1084 145.657C92.9821 145.343 92.9298 145.022 92.9524 144.676ZM92.2705 142.283C92.2675 142.301 92.2646 142.32 92.2619 142.338C92.1837 142.877 92.2002 142.983 92.4887 143.606C92.5647 143.772 92.6488 144.047 92.7182 144.343C92.7329 144.292 92.749 144.238 92.7665 144.18C92.942 143.596 92.9627 143.423 92.8849 143.156C92.8137 142.918 92.6908 142.739 92.2705 142.283Z" fill="#A3ACC9"/>
<path fill-rule="evenodd" clip-rule="evenodd" d="M258.263 151.082C260.194 151.702 261.554 152.445 262.567 152.998C263.296 153.396 263.845 153.696 264.299 153.782C265.143 153.942 266.817 153.488 268.103 153.14C268.85 152.937 269.467 152.77 269.714 152.779C270.385 152.805 270.593 153.217 269.204 154.375C269.067 154.489 268.941 154.592 268.826 154.686C267.78 155.543 267.654 155.646 268.217 156.759C268.841 157.995 269.458 159.432 268.139 158.775C267.646 158.53 267.097 158.113 266.533 157.685C265.587 156.967 264.599 156.217 263.759 156.184C263.339 156.168 262.802 156.384 262.105 156.664C261.155 157.045 259.909 157.546 258.263 157.741V151.082Z" fill="#A3ACC9"/>
<path fill-rule="evenodd" clip-rule="evenodd" d="M262.546 136.245C263.238 137.827 271.208 142.458 279.366 144.401V131.566C273.506 131.467 267.904 132.606 265.386 133.348C263.365 133.865 261.748 134.421 262.546 136.245ZM268.312 135.663C268.867 135.663 269.317 135.214 269.317 134.659C269.317 134.104 268.867 133.654 268.312 133.654C267.757 133.654 267.307 134.104 267.307 134.659C267.307 135.214 267.757 135.663 268.312 135.663Z" fill="#A3ACC9"/>
<path fill-rule="evenodd" clip-rule="evenodd" d="M362.064 192.943H355.74V180.164C356.63 181.34 357.771 182.385 362.101 180.879C368.491 178.656 366.824 174.767 365.157 173.1C364.824 172.767 364.358 172.356 363.854 171.912C361.836 170.134 359.211 167.821 362.101 167.821C364.023 167.821 365.551 168.607 367.063 169.385C368.393 170.069 369.71 170.747 371.27 170.877C372.639 170.991 374.946 171.339 376.843 171.884V175.86H377.446C373.092 178.156 370.514 180.386 367.936 184.769C365.157 189.492 361.268 190.048 359.601 190.048C358.609 190.048 360.321 191.584 362.064 192.943Z" fill="#A3ACC9"/>
<path fill-rule="evenodd" clip-rule="evenodd" d="M355.74 140.931C358.481 140.749 360.418 139.789 361.82 139.093C362.663 138.675 363.313 138.353 363.829 138.353C364.862 138.353 366.111 139.324 367.305 140.252C368.018 140.806 368.712 141.345 369.329 141.654C370.979 142.479 370.154 140.553 369.329 138.903C368.586 137.416 368.735 137.269 369.98 136.047C370.116 135.913 370.266 135.766 370.429 135.603C372.079 133.953 371.804 133.403 370.979 133.403C370.676 133.403 369.927 133.663 369.019 133.978C367.456 134.521 365.422 135.227 364.379 135.053C363.817 134.959 363.128 134.579 362.215 134.075C360.759 133.272 358.732 132.153 355.74 131.377V140.931Z" fill="#A3ACC9"/>
<path fill-rule="evenodd" clip-rule="evenodd" d="M248.811 154.099C249.475 152.842 250.004 151.508 250.399 150.096C248.145 150.202 246.184 150.557 245.149 150.825C244.02 151.074 243.113 151.353 243.522 152.378C243.746 152.94 245.56 154.232 247.998 155.417C248.304 154.986 248.575 154.546 248.811 154.099ZM246.271 152.091C246.577 152.091 246.826 151.842 246.826 151.536C246.826 151.229 246.577 150.981 246.271 150.981C245.964 150.981 245.716 151.229 245.716 151.536C245.716 151.842 245.964 152.091 246.271 152.091Z" fill="#A3ACC9"/>
<path fill-rule="evenodd" clip-rule="evenodd" d="M217.759 163.458C217.049 163.957 216.157 164.839 216.055 165.811H213.626C213.502 165.663 213.336 165.529 213.12 165.415C211.264 164.436 210.645 163.458 211.264 162.479C211.882 161.5 213.12 161.827 213.738 162.479C214.357 163.131 215.594 161.5 215.903 160.848C216.212 160.195 217.759 159.217 218.687 160.195C219.615 161.174 218.687 162.805 217.759 163.458ZM210.027 167.251C209.889 167.114 209.695 167.006 209.446 166.941C209.012 166.827 208.824 167.059 208.556 167.39L208.555 167.391C208.469 167.497 208.375 167.613 208.263 167.731L208.262 167.732C207.796 168.221 207.294 168.746 206.577 168.746C205.142 168.746 205.429 167.844 206.577 166.941C206.684 166.857 206.792 166.775 206.899 166.694L207.097 166.546C208.042 165.841 208.829 165.254 208.586 164.234C208.299 163.03 206.864 163.331 206.29 163.933C205.716 164.534 205.429 163.933 205.142 162.729C204.855 161.526 203.994 160.623 203.133 160.924C202.272 161.225 201.986 163.331 202.272 164.835C202.464 165.838 202.145 165.771 201.401 165.615L201.401 165.615C201.029 165.537 200.55 165.437 199.977 165.437C198.255 165.437 197.968 166.039 197.968 166.34C197.968 166.765 198.686 166.904 199.69 166.64C200.837 166.34 202.559 167.543 203.42 168.746C204.281 169.95 201.699 169.649 200.55 169.348C199.403 169.047 199.116 170.552 200.837 170.552C202.559 170.552 204.281 171.153 204.855 172.357C205.429 173.56 202.272 172.959 201.699 172.658C201.125 172.357 199.403 172.357 199.977 173.259C200.296 173.762 201.739 174.095 203.341 174.465L203.345 174.466L203.345 174.466C203.75 174.559 204.166 174.655 204.575 174.756C204.965 174.853 205.35 174.955 205.716 175.065C207.161 175.497 208.705 177.642 210.027 179.708V177.184L210.021 177.171C209.551 176.185 209.658 175.2 210.027 174.545V172.81C209.836 172.856 209.641 172.907 209.447 172.958L209.446 172.959C209.371 172.978 209.291 173.003 209.208 173.029L209.208 173.029L209.208 173.029L209.206 173.029C208.66 173.199 208.012 173.401 208.012 172.357C208.012 172.265 208.01 172.175 208.007 172.086C208.005 172.004 208.002 171.923 207.999 171.843C207.965 170.887 207.937 170.118 209.159 169.348C209.556 169.098 209.844 168.826 210.027 168.555V167.251ZM210.027 184.413C209.828 184.384 209.632 184.285 209.446 184.09C208.88 183.496 208.943 182.902 209.014 182.236L209.014 182.235C209.086 181.551 209.167 180.792 208.586 179.878C207.838 178.703 207.577 179.058 207.169 179.616L207.169 179.616C206.951 179.914 206.69 180.27 206.29 180.48C205.142 181.082 204.855 180.781 205.142 179.577C205.429 178.374 204.282 175.666 203.42 178.073C202.56 180.48 203.707 182.285 206.29 183.188C208.873 184.09 207.725 186.798 206.29 186.798C204.855 186.798 204.568 187.099 204.282 187.701C203.918 188.462 204.568 190.108 206.864 189.807C209.16 189.506 209.733 191.311 207.725 191.913C207.044 192.116 206.82 192.507 206.839 192.943H210.027V184.413ZM225.337 186.871C226.709 186.597 226.312 185.108 224.861 184.839C224.746 184.818 224.639 184.793 224.539 184.766L225.337 186.871ZM223.708 182.573C224.157 182.247 224.993 182.097 226.46 182.468C229.978 183.357 230.298 180.985 229.018 179.8C227.739 178.614 227.739 177.428 228.379 177.428C228.587 177.428 228.829 177.617 229.117 177.841L229.117 177.841C229.711 178.304 230.499 178.917 231.577 178.318C233.176 177.428 232.217 175.353 231.577 174.168C230.937 172.982 232.217 172.685 232.856 173.575C233.496 174.464 235.095 175.65 235.735 174.76C236.374 173.871 236.374 172.982 235.095 172.685C233.816 172.389 232.856 172.093 233.496 171.796C234.136 171.5 236.054 170.61 234.455 169.425C232.856 168.239 231.897 169.128 231.577 169.425C231.501 169.495 231.407 169.666 231.295 169.869L231.295 169.869L231.295 169.869L231.295 169.87C230.935 170.523 230.39 171.514 229.658 170.61C228.699 169.425 228.059 169.128 227.419 169.128C226.78 169.128 226.46 170.314 227.419 171.5C228.379 172.685 228.379 173.575 227.739 173.278C227.57 173.2 227.379 172.957 227.149 172.663L227.149 172.663C226.504 171.842 225.55 170.627 223.901 171.5C221.663 172.685 223.262 174.76 224.221 175.353C225.181 175.946 224.861 176.835 224.221 176.835C224.031 176.835 223.841 176.626 223.609 176.371L223.609 176.371C223.11 175.821 222.415 175.057 221.107 175.71L223.708 182.573Z" fill="#A3ACC9"/>
<path fill-rule="evenodd" clip-rule="evenodd" d="M287.405 145.236C291.408 145.009 294.244 143.759 296.3 142.853C297.54 142.306 298.496 141.885 299.252 141.889C300.769 141.897 302.595 143.19 304.342 144.426C305.386 145.165 306.4 145.883 307.304 146.296C309.72 147.4 308.522 144.847 307.322 142.657C306.241 140.685 306.462 140.491 308.296 138.884C308.498 138.708 308.718 138.514 308.959 138.3C311.392 136.129 310.992 135.399 309.781 135.393C309.336 135.391 308.235 135.729 306.899 136.14C304.602 136.846 301.612 137.765 300.082 137.527C299.259 137.399 298.25 136.891 296.913 136.217C294.778 135.142 291.804 133.644 287.405 132.595V145.236Z" fill="#A3ACC9"/>
<path fill-rule="evenodd" clip-rule="evenodd" d="M347.7 176.56C342.125 175.089 334.105 173.302 327.371 172.266C322.266 171.481 319.48 172.006 318.071 172.854L326.027 186.736C332.203 189.129 340.522 191.589 346.05 192.944H347.7V176.56Z" fill="#A3ACC9"/>
<path fill-rule="evenodd" clip-rule="evenodd" d="M340.726 132.028C342.068 131.58 344.701 130.941 347.7 130.711V139.52C343.139 137.86 339.203 135.234 338.8 134.228C338.25 132.853 339.35 132.426 340.726 132.028ZM342.314 134.064C342.62 134.064 342.869 133.815 342.869 133.509C342.869 133.202 342.62 132.954 342.314 132.954C342.007 132.954 341.759 133.202 341.759 133.509C341.759 133.815 342.007 134.064 342.314 134.064Z" fill="#A3ACC9"/>
<path d="M409 0V26.1278H356.744V43.2113L398.951 43.1476V68.3342H356.744V87.4275H409V114.56H322.577V0H409Z" fill="#064C7F"/>
<path d="M260.957 39.6659C274.317 42.4651 283.773 44.9229 289.391 47.1076C295.009 49.2923 299.668 52.979 303.505 58.2359C307.273 63.4928 309.123 69.7056 309.123 76.8059C309.123 88.0024 304.601 97.1509 295.42 104.115C286.239 111.078 274.249 114.56 259.381 114.56C232.18 114.56 215.394 103.295 209.022 80.6974L240.813 75.0308C243.486 83.9744 250.406 88.4803 261.437 88.4803C270.001 88.4803 274.317 86.2274 274.317 81.6532C274.317 79.2636 273.29 77.352 271.303 76.0549C269.316 74.6894 265.753 73.5288 260.614 72.5047C241.019 68.7498 228.481 63.8342 222.931 57.8263C217.381 51.8183 214.572 44.7181 214.572 36.5937C214.572 26.0799 218.614 17.4093 226.562 10.4456C234.579 3.48186 246.021 0 261.025 0C283.704 0 298.709 9.14843 306.04 27.3088L277.675 35.8427C274.729 28.4011 268.768 24.7144 259.792 24.7144C252.324 24.7144 248.624 26.9674 248.624 31.6099C248.624 33.658 249.446 35.2283 251.159 36.3889C252.804 37.5495 256.092 38.6419 260.957 39.6659Z" fill="#064C7F"/>
<path d="M197.968 114.56H162.796V0H197.968V114.56Z" fill="#064C7F"/>
<path d="M92.3834 0L109.381 66.0645L125.451 0H152.376L121.966 114.56H92.4084L76.3886 51.3779L61.2463 114.56H30.1474L0 0H33.0925L49.1374 65.9391L64.7561 0H92.3834Z" fill="#064C7F"/>
<path fill-rule="evenodd" clip-rule="evenodd" d="M322.577 70.3788V68.5705L323.897 67.6278V61.6822C323.989 61.2198 324.174 60.2949 325.007 60.2949C325.673 60.2949 325.839 61.2198 325.839 61.6822V67.7217L348.116 87.4022L356.744 81.3627V83.6226L349.659 88.7651L368.94 105.799H370.788C371.898 105.799 373.285 106.076 371.898 108.018C370.913 109.396 370.002 112.622 369.55 114.56H322.577V90.8158H323.897V69.5304L322.577 70.3788ZM357.47 87.4276H358.58V87.5809C359.226 87.8095 359.689 88.4261 359.689 89.151C359.689 89.8758 359.226 90.4925 358.58 90.721V91.1159C359.06 91.1912 359.689 91.4704 359.689 92.2031C359.689 92.2601 359.691 92.3184 359.693 92.3776L359.696 92.4842C359.724 93.2649 359.755 94.1453 358.025 94.1453C357.655 94.1453 356.915 94.0343 356.915 93.5904C356.915 93.0354 357.47 93.0354 358.025 93.0354C358.58 93.0354 359.135 92.4805 358.302 91.9256L358.301 91.9248C357.838 91.616 357.633 91.4792 357.542 91.3707H357.47V91.0932V90.721C356.823 90.4925 356.36 89.8758 356.36 89.151C356.36 88.4261 356.823 87.8095 357.47 87.5809V87.4276ZM326.522 91.0397C326.58 91.1356 326.63 91.2455 326.671 91.3707C327.115 92.7025 326.487 93.7753 326.117 94.1453V102.802L330.833 99.5003V84.5729L326.522 91.0397ZM325.839 89.898L330.833 82.0223V79.4398C330.926 78.9774 331.111 78.0525 331.943 78.0525C332.609 78.0525 332.776 78.9774 332.776 79.4398V80.8019L345.75 89.0585L346.734 88.3701L325.839 69.4001V89.898ZM344.324 90.0567L332.776 82.8387V98.1407L344.324 90.0567ZM328.738 103.95L330.833 102.429V104.108L328.738 103.95ZM353.238 105.799H365.93L348.275 89.7696L332.776 101.019V104.254L353.238 105.799Z" fill="#A3ACC9"/>
<path fill-rule="evenodd" clip-rule="evenodd" d="M309.123 76.7154L278.534 94.228L293.095 96.7703V89.5563C292.725 89.2788 291.985 88.5019 291.985 87.614C291.985 86.7261 293.28 86.3192 293.927 86.2267H307.925C307.722 86.9785 307.493 87.7184 307.238 88.4464H305.303V91.221H306.112C303.843 96.119 300.286 100.424 295.42 104.114C291.765 106.886 287.666 109.107 283.117 110.775C278.615 107.422 274.551 98.6615 273.788 97.0173L273.788 97.0173L273.788 97.0172L273.788 97.0169C273.73 96.8911 273.691 96.807 273.672 96.7703C273.594 96.6139 273.406 96.4356 273.194 96.2352C272.655 95.7243 271.965 95.0703 272.562 94.2731C273.228 93.3852 274.875 93.5332 275.615 93.7182L276.14 93.81L309.074 74.8191C309.105 75.444 309.122 76.0761 309.123 76.7154ZM295.87 88.4464H298.644V91.221H295.87V88.4464ZM303.638 88.4464H300.864V91.221H303.638V88.4464Z" fill="#A3ACC9"/>
<path fill-rule="evenodd" clip-rule="evenodd" d="M197.968 42.4144H195.376C194.821 42.3219 193.656 42.3034 193.434 42.9693C193.157 43.8017 192.602 44.0791 190.937 44.0791H187.885V44.9115L189.24 114.56H182.373L184 42.9693C183.63 42.6918 182.78 42.3034 182.336 42.9693C182.055 43.3899 182.129 44.1648 182.199 44.9001C182.268 45.6199 182.333 46.3018 182.058 46.5763C181.624 47.0103 169.309 66.9274 162.796 77.4969V70.969L175.399 46.2988C175.954 45.0965 177.563 42.6363 179.561 42.4144C181.559 42.1924 181.318 40.6571 180.948 39.9172C180.763 39.0848 180.504 37.1426 180.948 36.0327C181.221 35.3517 181.159 35.3393 180.828 35.2734C180.485 35.2051 179.854 35.0792 179.006 34.0905C177.774 32.6529 168.371 16.6942 162.796 7.13706V3.23389L180.671 27.7089C181.503 28.8187 183.057 31.5379 182.613 33.5356C182.058 36.0327 184.833 37.1426 185.665 37.4201C186.205 37.6 192.856 37.792 197.968 37.9076V42.4144Z" fill="#A3ACC9"/>
<path fill-rule="evenodd" clip-rule="evenodd" d="M64.7211 100.061L61.2462 114.56H61.0595V103.39H58.8398V101.171H59.9497V100.061H64.7211ZM69.984 78.1012L68.4353 84.5634L61.6145 73.9794H59.9497V90.9046H61.0595V91.7369H58.2849V90.9046H59.3948V73.147H59.6722H59.9497H61.8919L62.4468 72.5921H63.5567L69.984 78.1012ZM128.982 88.1299H127.65V87.0201H128.76V72.0371H126.802L116.748 88.6849V93.1243L118.703 94.2341V97.0087H120.937C121.775 97.1012 123.451 98.0076 123.451 100.893V105.333H121.775V114.56H113.956V105.333H106.136V114.56H102.227V105.333H97.1999V114.56H92.4083L86.8674 92.7066L95.2451 44.8459L98.7944 42.947V38.1868H99.3493V43.1783L102.227 44.8459L107.253 92.0144H107.812V87.8525H108.929L110.884 82.0258L126.802 70.3724L129.315 70.9273V71.4822V72.0371V86.8745L128.982 88.1299Z" fill="#A3ACC9"/>
<path fill-rule="evenodd" clip-rule="evenodd" d="M214.867 41.0479C214.73 40.041 214.641 39.0166 214.599 37.9749H223.162H225.104C224.827 38.6223 223.662 40.0281 221.22 40.472C219.917 40.7089 217.397 40.9037 214.867 41.0479Z" fill="#A3ACC9"/>
</svg>
