<svg width="36" height="36" viewBox="0 0 36 36" xmlns="http://www.w3.org/2000/svg">
<path fill-rule="evenodd" clip-rule="evenodd" d="M21.9309 24.0522C20.2716 25.2765 18.2202 26 16 26C10.4772 26 6 21.5228 6 16C6 10.4772 10.4772 6 16 6C21.5228 6 26 10.4772 26 16C26 18.2202 25.2765 20.2716 24.0522 21.9309L28.8389 26.7175C29.4247 27.3033 29.4247 28.2531 28.8389 28.8389C28.2531 29.4246 27.3033 29.4246 26.7175 28.8389L21.9309 24.0522ZM23 16C23 19.866 19.866 23 16 23C12.134 23 9 19.866 9 16C9 12.134 12.134 9 16 9C19.866 9 23 12.134 23 16Z" />
</svg>
